<?xml version="1.0" standalone="no"?><!DOCTYPE svg PUBLIC "-//W3C//DTD SVG 1.1//EN" "http://www.w3.org/Graphics/SVG/1.1/DTD/svg11.dtd"><svg t="1536746396620" class="icon" style="" viewBox="0 0 1024 1024" version="1.1" xmlns="http://www.w3.org/2000/svg" p-id="9176" xmlns:xlink="http://www.w3.org/1999/xlink" width="200" height="200"><defs><style type="text/css"></style></defs><path d="M954.752 1022.414H71.248c-36.667 0-66.498-29.831-66.498-66.498V72.412c0-36.667 29.831-66.498 66.498-66.498h883.504c36.667 0 66.498 29.831 66.498 66.498v883.504c0 36.667-29.831 66.498-66.498 66.498zM71.248 45.915c-14.611 0-26.498 11.887-26.498 26.498v883.504c0 14.611 11.887 26.498 26.498 26.498h883.504c14.611 0 26.498-11.887 26.498-26.498V72.412c0-14.611-11.887-26.498-26.498-26.498H71.248z" p-id="9177"></path><path d="M251.915 312.567a58.786 58.786 0 0 0 51.948-30.028h147.122L595.24 426.726l0.246 0.259h88.349a58.853 58.853 0 0 0 49.928 26.738c34.272 0 60.478-26.206 60.478-60.478s-26.206-60.478-60.478-60.478a58.785 58.785 0 0 0-51.866 29.918h-57.476L506.331 246.26l-28.185-28.103H301.72a58.856 58.856 0 0 0-49.805-26.561c-34.272 0-60.478 26.206-60.478 60.478s26.206 60.493 60.478 60.493zM816.42 534.511c-25.783 0-47.007 14.836-55.961 36.852h-222.19L364.286 745.25H262.193a57.091 57.091 0 0 0-30.423-25.264c-30.246-12.093-66.525 4.095-78.631 34.272-12.107 30.178 4.095 66.525 34.272 78.631 27.161 9.704 56.193 0.723 72.708-23.326h130.675v-0.082l0.109 0.109 173.969-173.983h201.471v-0.287h5.719a57.759 57.759 0 0 0 44.359 20.159c34.272 0 60.478-26.206 60.478-60.478-0.091-33.364-27.113-60.392-60.479-60.49z m-604.824 15.983a58.8 58.8 0 0 0 51.429-29.195h98.75a58.8 58.8 0 0 0 51.429 29.195c34.272 0 60.478-26.206 60.478-60.478s-26.206-60.478-60.478-60.478A58.842 58.842 0 0 0 362.812 457H261.988a58.842 58.842 0 0 0-50.392-27.462c-34.272 0-60.478 26.206-60.478 60.478s26.206 60.478 60.478 60.478z" p-id="9178"></path></svg>