<?xml version="1.0" standalone="no"?><!DOCTYPE svg PUBLIC "-//W3C//DTD SVG 1.1//EN" "http://www.w3.org/Graphics/SVG/1.1/DTD/svg11.dtd"><svg t="1536746075251" class="icon" style="" viewBox="0 0 1024 1024" version="1.1" xmlns="http://www.w3.org/2000/svg" p-id="1688" xmlns:xlink="http://www.w3.org/1999/xlink" width="200" height="200"><defs><style type="text/css"></style></defs><path d="M853.333333 490.666667h-64v-170.666667c0-46.933333-38.4-85.333333-85.333333-85.333333h-170.666667V170.666667c0-59.733333-46.933333-106.666667-106.666666-106.666667S320 110.933333 320 170.666667v64h-170.666667c-46.933333 0-85.333333 38.4-85.333333 85.333333v162.133333H128c64 0 115.2 51.2 115.2 115.2S192 712.533333 128 712.533333H64v162.133334c0 46.933333 38.4 85.333333 85.333333 85.333333h162.133334V896c0-64 51.2-115.2 115.2-115.2s115.2 51.2 115.2 115.2v64h162.133333c46.933333 0 85.333333-38.4 85.333333-85.333333v-170.666667H853.333333c59.733333 0 106.666667-46.933333 106.666667-106.666667s-46.933333-106.666667-106.666667-106.666666z" p-id="1689"></path></svg>