<?xml version="1.0" standalone="no"?><!DOCTYPE svg PUBLIC "-//W3C//DTD SVG 1.1//EN" "http://www.w3.org/Graphics/SVG/1.1/DTD/svg11.dtd"><svg t="1536768319629" class="icon" style="" viewBox="0 0 1024 1024" version="1.1" xmlns="http://www.w3.org/2000/svg" p-id="4920" xmlns:xlink="http://www.w3.org/1999/xlink" width="200" height="200"><defs><style type="text/css"></style></defs><path d="M625.777778 91.022222c-5.688889 0-14.222222 5.688889-14.222222 11.377778v358.4c0 56.888889-45.511111 102.4-102.4 102.4s-102.4-45.511111-102.4-102.4V102.4c0-8.533333-5.688889-11.377778-14.222223-11.377778C193.422222 145.066667 42.666667 329.955556 42.666667 551.822222 42.666667 813.511111 253.155556 1024 512 1024S981.333333 813.511111 981.333333 551.822222C981.333333 329.955556 830.577778 142.222222 625.777778 91.022222z m-113.777778 386.844445c34.133333 0 59.733333-25.6 59.733333-59.733334V59.733333c0-34.133333-25.6-59.733333-59.733333-59.733333s-59.733333 25.6-59.733333 59.733333v358.4c0 34.133333 25.6 59.733333 59.733333 59.733334z" p-id="4921"></path></svg>