<?xml version="1.0" standalone="no"?><!DOCTYPE svg PUBLIC "-//W3C//DTD SVG 1.1//EN" "http://www.w3.org/Graphics/SVG/1.1/DTD/svg11.dtd"><svg t="1536742596620" class="icon" style="" viewBox="0 0 1024 1024" version="1.1" xmlns="http://www.w3.org/2000/svg" p-id="27910" xmlns:xlink="http://www.w3.org/1999/xlink" width="200" height="200"><defs><style type="text/css"></style></defs><path d="M571.538286 119.778743c204.214857 22.7328 336.398629 193.243429 336.398628 403.602286 0 225.777371-183.032686 408.810057-408.810057 408.810057-11.8784 0-23.639771-0.526629-35.254857-1.521372l0.380343 0.117029C256.234057 911.652571 117.028571 738.976914 117.028571 525.984914 117.028571 300.207543 272.413257 117.1456 525.867886 117.1456c15.272229 0 30.368914 0.877714 45.202285 2.516114l0.468115 0.117029z m-8.426057 203.044571a67.9936 67.9936 0 1 0-135.9872 0 67.9936 67.9936 0 0 0 135.9872 0z m-28.496458 199.826286c-232.360229 2.8672-306.088229 298.656914-60.181942 378.587429 11.293257 1.053257 22.7328 1.6384 34.318628 1.6384 204.361143 0 370.015086-169.896229 370.015086-379.465143 0-195.3792-144.003657-356.234971-329.084343-377.124572 220.511086 69.983086 165.536914 374.1696-15.067429 376.393143z m34.084572 212.640914a67.9936 67.9936 0 1 1-136.016457 0 67.9936 67.9936 0 0 1 136.016457 0z" p-id="27911" fill="#fff"></path></svg>
