<?xml version="1.0" standalone="no"?><!DOCTYPE svg PUBLIC "-//W3C//DTD SVG 1.1//EN" "http://www.w3.org/Graphics/SVG/1.1/DTD/svg11.dtd"><svg t="1536768278568" class="icon" style="" viewBox="0 0 1024 1024" version="1.1" xmlns="http://www.w3.org/2000/svg" p-id="2575" xmlns:xlink="http://www.w3.org/1999/xlink" width="200" height="200"><defs><style type="text/css"></style></defs><path d="M107.43575534 818.25641034q0 67.07692299 38.461539 115.076923T238.51267834 981.33333334L764.05114034 981.33333334q54.15384599 0 92.615385-48T895.12806334 818.25641034q0-52.307692-5.230769-98.769231t-19.384616-93.538461-36-80.615385-57.846153-54.76923101T693.89729434 469.33333334q-80.615385 78.769231-192.615385 78.769231t-192.615384-78.769231q-46.769231 0-82.769231 21.230769t-57.846154 54.769231-36 80.61538501-19.384615 93.53846099T107.43575534 818.25641034z m157.538462-545.846154q0 97.84615401 69.230769 167.076923T501.28190934 508.71794834 668.35883234 439.48717934 737.58960134 272.41025634t-69.230769-167.076923T501.28190934 36.10256434t-167.076923 69.230769T264.97421734 272.41025634z" p-id="2576"></path></svg>